<svg viewBox="0 0 640 400" data-background-color="#162836" preserveAspectRatio="xMidYMid meet" height="400" width="640" xmlns="http://www.w3.org/2000/svg" xmlns:xlink="http://www.w3.org/1999/xlink"><rect width="640" height="400" x="0" y="0" opacity="1" fill="#162836" data-fill-palette-color="background" id="background"></rect><g id="tight-bounds" transform="matrix(1,0,0,1,160,20)"><svg viewBox="0 0 320 360" height="360" width="320"><g><svg></svg></g><g><svg viewBox="0 0 320 360" height="360" width="320"><g><path xmlns="http://www.w3.org/2000/svg" d="M165.217 303.356c-1.404-1.755-2.809-0.702-2.808-1.755-8.426 2.106-24.223-3.511-30.894-2.809 1.404-2.106-2.106-1.755-2.106-3.159-1.404 2.106-2.809 0-4.915 0.702-2.106-5.266-10.532-1.404-11.585-8.075-4.915 0-6.67-2.809-11.586-5.617 0.351-0.351 0.702-0.351 1.054-0.702-2.457-0.351-2.457-1.755-4.564-1.755l0.702-1.405c-3.862-0.702-5.266-6.67-10.883-8.776-1.755-0.351-5.617-6.319-7.723-7.724-1.053-0.702-2.809-0.702-0.352-1.053-0.351-0.351-0.351-1.053 0-1.404-2.457-0.702-2.809-2.809-5.968-3.862-0.351-1.053 0.702-1.755 0-2.457-0.702-0.351-1.755 0.351-2.457 0-0.351 6.319 6.67 7.021 8.777 12.287-0.702-0.702-1.755-2.809-2.458-1.404-0.351 1.053 2.809 4.915 2.809 2.808-1.053 0.702-1.404-1.053-0.703-1.404 1.053 1.755 3.16 1.404 3.16 2.809-1.053 1.053-2.457-1.053-2.106 0.702 3.16 1.755 2.809 3.511 4.563 5.968-1.404-1.755-1.755 1.404-3.159 0-0.351-5.266-6.319-4.213-6.319-9.479-0.702-1.755-1.404-0.351-2.458-1.053 1.404-1.404-4.213-6.319-4.213-4.564-1.755-2.106-0.702-2.809-1.053-4.213-1.404-0.351-0.351 1.404-1.404 0.351 1.404-2.457-1.755-5.617-3.862-8.074l1.405-0.702c-2.457-1.404-2.809-4.213-4.564-7.373-2.106 3.16 4.213 10.181 3.159 11.585 0 0.351 2.457 3.16 3.16 4.564 2.809 4.915 4.915 10.883 8.777 13.692-0.702-0.351-0.351-2.457 0.702-1.404 0 1.053-0.702 2.106-0.702 3.159 2.106 2.106 3.862 3.862 5.968 5.968-4.564-2.809-9.128-5.617-12.288-9.83 1.755-0.351 3.511 2.809 4.915 2.458-3.511-2.809-2.457-3.862-3.861-7.372-1.404-1.053 0.351 1.404-1.054 1.755-4.564-4.213-8.075-6.67-10.181-10.532 0.351-0.351 0.702-0.702 0.703-1.404-0.351-0.351-0.351-0.351-0.703-0.702 2.106 2.106 2.809 3.862 5.266 4.212-1.053-1.053 0-1.404-1.404-2.457-0.702-1.404-1.755 0.702-2.457-0.351 0.702-1.053 0-2.457 0-3.511-0.702 0-1.404 0-1.756-1.053-0.702-0.351-1.053 0-1.404 0.702-0.351-0.351-0.351-1.053-0.702-1.404v-0.351c-0.351-0.351-0.702-1.053-1.053-1.405-2.809-7.372-4.564-17.202-8.426-23.521 1.053-4.213-0.702-12.638-1.755-14.745 1.053-1.755 0.351-9.83-0.351-11.234-1.755 0.702 0.351 4.564-1.404 5.617-1.755-7.723 1.053-16.5 0.351-23.521 0.702 0 1.404 0 1.404-0.351-1.053-1.053 0.702-3.16 0.351-5.617 1.404-3.16-3.16 4.564-3.16 7.723-0.351 0.702-1.755 0-1.404 1.756 0 2.457 0.702 7.372-0.702 10.883-0.702 0-0.702-0.702-1.404-0.351-0.351 1.755-0.702 3.862-1.053 5.617-0.351-0.702-0.702-1.755-0.703-2.107-1.755-8.777 0-18.958-0.702-26.33 1.404 0 1.404-2.106 2.458-2.808-0.351 2.809-1.053 6.319 0.702 7.021 1.404-13.692 4.213-28.787 10.532-43.532 4.564-10.883 11.234-21.766 19.308-30.543 0.702 1.053-0.351 3.511 0 4.564 7.021-7.372 11.585-16.149 19.309-21.064 0.351 1.755-3.16 3.16-3.16 4.564 3.16-3.16 4.213-2.106 7.724-3.159 1.053-1.404-1.404 0-1.756-1.405 2.106-1.404 3.511-3.16 4.915-4.212 0 0.351-0.351 0.351-0.351 0.702 3.862-1.053 4.213-3.16 7.022-3.862-0.351-0.351-1.053-0.702-2.107-0.351 0.702-0.351 1.755-1.053 2.809-1.404-0.351 0-0.351 0.351-0.702 0.351 2.106-1.053 0.351 0.351 0.351 1.053 0.351 0 0.702-0.351 0.702-0.351-2.106 1.404-3.511 2.106-4.213 4.564 1.053-0.702 1.404 0 2.809-1.054 1.404-0.702-0.351-1.755 0.702-2.457 1.053 0.702 2.457 0.351 3.51 0.351 0-0.702 0.351-1.404 1.054-1.755 0.351-0.702 0-1.053-0.352-1.053 0.351-0.351 0.702-0.351 1.405-0.703 0 0 0.351 0 0.351 0.351 5.968-2.809 12.638-5.266 18.957-7.372 3.862-0.351 8.777-0.351 10.883-2.808-0.702 0-1.404 0.351-1.755 0 0.351 0 1.053-0.351 1.404-0.351 0.702 0.702 1.755 0 0.702 1.404 0.351 0 0.351 0 0.703-0.351 0 0.351 0 0.351 0.351 0.702 0.351 0 0.702-0.351 1.053-1.053 0.351 0 0.702 0 1.053-0.351l-0.351 0.351c2.809-0.702 5.266-0.351 9.128-1.054 0-0.351 0-0.702 0-1.053 0.702 0 1.053-0.351 1.755-0.351v0.351c1.404-0.702 2.809 0.702 2.808 0 0.351 0 0.351 0 0.703 0 0 0.702-0.351 1.053-0.351 1.405 1.755 0 2.809 0 3.51-1.054-0.351-0.351-0.702-0.351-1.053-0.351 0.702 0 1.404-0.351 2.106-0.702 1.053 0.351 1.404 0.702 1.405 2.107 1.755-3.16 7.372 0.702 9.829 0 1.053 0 0.702-1.404 1.405-2.107 0.351 0 0.702 0 1.053 0 1.755 1.404 4.213 2.809 7.372 3.16-2.809-0.702 0.351-1.053 0.702-1.405-0.702 0-0.702-0.351-0.702-0.702 1.053 0 2.106 0.351 3.16 0.351 0 0.702 0.351 1.053 1.053 1.054 0.702 0 0.702-0.351 0.702-1.054 1.053 0 1.755 0 2.809 0.351-0.351 1.404 1.755 1.755 2.457 2.809-2.809-0.702-5.968-1.755-7.021 0 11.234 2.457 23.521 5.968 35.457 11.936 0 0 0 0 0 0.351h0.352c2.106 1.053 4.213 2.106 6.319 3.16 1.404 0.702 2.457 1.404 3.861 2.457 0 0.351 0 0.702 0.703 0.702h0.351c1.404 1.053 2.809 1.755 4.212 2.809 1.404 2.106 2.809 4.915 5.266 4.213 5.266 8.075 10.883 11.234 15.447 19.659 0.351-1.404 1.404 3.16 3.16 3.511-2.809-0.351 1.755 1.755-1.053 1.404 2.457 2.457 3.16 3.511 3.51 6.319-0.702-1.404-1.053-1.755-1.404-0.351-0.351 2.106 2.457-0.351 3.511 1.756-2.106 0-1.404 1.404-1.054 3.159 1.053-1.053 0.702-2.106 1.756-1.755 1.404 1.404-0.702 1.755-0.351 2.809 1.053-1.404 1.404-0.702 2.808 0-1.755 0.351 1.053 2.809-1.053 1.755 1.404 1.755 1.755 2.809 1.053 4.564-1.404-2.106-0.351-3.511-2.457-3.16 4.213 3.511 2.106 11.585 7.021 12.287-3.16 0.702 0 2.106-1.755 2.458 2.106 0.702 1.053 3.511 3.51 4.213-0.351 1.755-1.053 2.809-1.404 4.563 1.053 1.404 1.404 4.213 3.16 4.564-1.053 1.053-0.351 3.862-1.404 4.915 1.404-0.702 2.106-0.702 3.159 0.702-1.755 1.404-0.351 2.809-1.404 3.16 3.16 8.075-0.702 24.575 1.053 30.894-2.106-1.053-1.404 2.457-2.808 2.457 2.457 1.053 0.351 2.809 1.404 4.564-4.915 2.809 0 10.532-6.67 12.287 0.702 4.915-2.106 7.021-4.213 12.288-0.351-0.351-0.351-0.702-0.702-1.054-0.351 2.457-1.755 2.809-1.054 4.915l-1.404-0.702c0 3.862-5.968 5.968-7.372 11.936-0.351 1.755-5.617 6.319-7.022 8.777-0.702 1.053-0.351 2.809-1.053 0.351-0.351 0.351-1.053 0.351-1.404 0.351-0.351 2.457-2.457 3.16-3.16 6.319-0.702 0.351-1.755-0.702-2.457 0.351 0 0.702 0.702 1.755 0.351 2.458 6.319-0.351 6.319-7.723 11.234-10.181-0.351 1.053-2.457 2.106-1.053 2.808 1.053 0 4.213-3.511 2.457-3.159 1.053 0.702-1.053 1.404-1.404 1.053 1.755-1.404 1.053-3.16 2.458-3.511 1.053 0.702-1.053 2.457 1.053 2.107 1.404-3.16 3.16-3.511 5.266-5.266-1.404 1.404 1.755 1.755 0.351 3.159-5.266 1.053-3.511 7.021-8.777 7.724-1.404 1.053-0.351 1.404-0.702 2.457-1.755-1.053-5.617 4.915-4.213 4.564-1.755 1.755-2.809 1.053-4.212 1.404-0.351 1.404 1.404 0.351 0.702 1.405-2.457-1.053-5.617 2.457-7.724 4.915l-1.053-1.054c-1.053 2.809-3.862 3.16-7.021 5.266 3.511 1.755 9.479-5.617 11.234-4.564 0.351 0 3.16-2.809 4.213-3.861 4.564-3.511 10.181-6.319 12.287-10.181-0.351 0.702-2.457 0.702-1.404-0.351 1.053-0.351 2.106 0.351 3.159 0.351 5.617-7.723 12.638-14.043 17.905-23.17 0.351-0.351 0.702-1.053 1.053-1.756-0.702 2.106-1.755 3.862-2.458 5.968-5.617 3.862-7.723 15.096-14.393 16.851 0.351 3.862-3.16 4.915-4.915 9.479-1.053 1.404-1.755-1.053-2.809 0.702 1.053 4.915-8.777 4.564-8.425 9.128-0.702 0.351-1.755 0.702-2.458 1.404h-0.351c-0.351 0.351-0.351 0.351-0.702 0.702-1.755 1.053-3.16 2.106-4.564 3.16-4.915 2.809-11.585 4.915-16.851 7.723v-0.351c-1.404 0.702-3.16 0.351-2.809 1.756-1.053 0.702-2.106 1.404-3.159 2.106-0.351 0-0.351 0-0.702 0 0 0-0.351-0.351-0.702-0.351-0.702 0-0.702 0-1.054 0.351-4.564 0.351-10.532 2.457-12.287 3.862-1.755-1.053-9.83 0.702-11.234 1.404 0.702 1.053 2.809 0 4.564 0-1.053 0.351-2.106 0.702-2.458 1.404-0.351 0-0.351 0-0.702 0-0.351-1.053-1.404 0-1.755-0.351h0.351c-0.351-1.404-1.404-2.106-3.16-1.755 0 0.702 0 1.053-0.351 1.755 0.702 0 2.809-1.053 2.809 0-0.351 0-0.351 0.351 0 0.351-0.702 0.702-1.755 0.702-2.458 1.054-1.404 0-3.16 0-4.563 0-0.351-0.351-0.702-0.351-1.405-0.703-0.351 0.351-1.053 0.351-1.404 0.703-2.106 0-4.564 0.351-6.319 0.702 0-0.702 0-1.404-0.702-1.405-1.053 1.404-3.16-0.351-5.617 0.352-2.457-0.702 1.404 1.053 4.915 1.755-0.351 0.351-0.702 0.702-1.756 1.053M116.068 308.271c-4.915-4.564-15.096-6.67-16.851-10.181-2.809-0.351-7.021-5.617-10.532-6.319 1.755 0 0.351-1.053 0-1.755-0.702 0.702-1.404 1.053-2.106 1.053 0-2.809-2.809-4.564-5.266-6.319 1.755 1.053 3.16 1.755 5.266 2.106 0-0.702 0-1.404 0.702-1.404 2.457 2.457 5.266 4.915 8.425 7.372 4.213 3.862 25.979 13.692 29.841 15.447 0 0-0.702 1.404-0.351 1.404 1.755 1.053 3.16-1.053 3.511 1.404-5.617 0.702-7.723-3.16-12.639-2.808M277.909 226.824v0.351 0c-0.351 0 0-0.351 0-0.351M136.079 64.281c-0.351 0.351-0.702 0.351-0.702 0.351 0-0.351 0.351-0.351 0.702-0.351M129.409 66.036c0 0.351 0 0.351 0 0 0 0.351 0 0.351 0 0 0 0.351 0 0 0 0M106.238 73.408v0c0.351-0.351 0.351-0.351 0.703-0.351-0.351 0-0.702 0.351-0.703 0.351M162.409 61.823c-0.702 0-1.053 0-1.404-0.351 0.351 0 0.702 0 1.053 0h0.351c0 0 0 0 0 0.351M168.728 62.525c-0.351-0.351-1.404-0.702-2.457-0.702 0-0.351 0.351-0.702 0.351-0.702 0.351 0 0.702 0 1.053 0 0 0 0.351 0 0.351 0.351 0 0 0 0 0-0.351 0.351 0 0.351 0 0.702 0 0.351 0.702 0.702 1.053 0 1.404M180.313 63.579c-1.755 0.351-2.809-0.351-4.564-1.405 1.053 0 2.457 0.351 3.511 0.702 0.351 0 0.702 0.351 1.053 0.703M305.292 113.43c-0.702 0.351-1.053 0.351-1.755-1.053-5.617-11.936-15.798-29.138-30.543-43.532-14.394-14.745-33.702-26.681-51.255-33.001 1.053 0.351 2.457 1.053 1.755 1.756-15.447-5.968-30.192-9.479-44.234-10.883-37.915-5.968-77.585 2.106-108.128 21.766 0.351 0.702 0.351 1.053-0.702 1.755-11.234 7.021-27.032 19.309-39.671 35.458-12.638 16.149-22.468 36.511-26.681 54.766 0.351-1.053 0.702-2.809 1.405-2.107-9.128 36.16-6.67 67.053 5.968 93.735 0.702-0.702-1.755-4.213 0.351-3.862 1.404 3.862 3.16 8.075 5.266 11.936 2.457 5.617 5.266 12.989 9.128 14.745-9.83-19.309-16.5-41.426-17.203-61.085 1.404 2.809 1.053 8.777 3.16 11.234 0.702-13.34-2.457-31.245 2.106-43.883-1.053 6.67-1.755 15.798-1.053 24.925 0 6.67 3.16 25.277 5.266 27.032-0.351-0.351-0.351-2.106 0-2.106 1.053 2.106-1.404 3.16 0.351 3.511 0-0.702 0.351-0.702 0.702-0.703 3.511 7.723 8.075 19.66 11.585 25.628 4.213 7.723 9.83 14.745 16.149 21.064 0 0.351 0.351 0.351 0.352 0.702 0.702 1.755 3.16 3.862 3.861 5.266 0.351 0.702-0.351 1.755 0 2.458 5.266 9.83 12.989 19.66 22.468 27.383 5.968 7.021 15.447 14.394 27.032 20.713 11.234 5.968 24.223 10.883 36.16 13.691 8.426 2.106 18.606 2.457 24.926 3.862 8.426 1.755 23.17-0.702 30.542-2.107 44.234-6.67 88.117-36.862 110.235-80.393 22.819-43.883 22.117-97.596 2.457-138.671" fill="#cf7650" fill-rule="nonzero" stroke="none" stroke-width="1" stroke-linecap="butt" stroke-linejoin="miter" stroke-miterlimit="10" stroke-dasharray="" stroke-dashoffset="0" font-family="none" font-weight="none" font-size="none" text-anchor="none" style="mix-blend-mode: normal" data-fill-palette-color="tertiary"></path></g><g transform="matrix(1,0,0,1,88.07199999999999,108.07199999999999)"><svg viewBox="0 0 143.85600000000002 143.85600000000002" height="143.85600000000002" width="143.85600000000002"><g><svg viewBox="0 0 143.85600000000002 143.85600000000002" height="143.85600000000002" width="143.85600000000002"><g><svg viewBox="0 0 143.85600000000002 143.85600000000002" height="143.85600000000002" width="143.85600000000002"><g id="textblocktransform"><svg viewBox="0 0 143.85600000000002 143.85600000000002" height="143.85600000000002" width="143.85600000000002" id="textblock"><g><svg viewBox="0 0 143.85600000000002 143.85600000000002" height="143.85600000000002" width="143.85600000000002"><g transform="matrix(1,0,0,1,38.02081562854268,38.528745622942566)"><svg viewBox="0 0 67.81436874291467 66.79850875411489" height="66.79850875411489" width="67.81436874291467"><g id="icon-0"><svg xmlns="http://www.w3.org/2000/svg" xml:space="preserve" viewBox="0 1.4979991912841797 100 98.50199890136719" x="0" y="0" height="66.79850875411489" width="67.81436874291467" class="icon-o-0" data-fill-palette-color="accent" id="o-0"><path d="M24.948 46.601c0 6.329-5.13 11.446-11.433 11.446-6.341 0-11.457-5.117-11.457-11.446-0.002-6.315 5.115-11.445 11.457-11.445 6.303 0 11.433 5.13 11.433 11.445M75.053 46.601c0 6.329 5.131 11.446 11.432 11.446 6.342 0 11.473-5.117 11.473-11.446-0.001-6.315-5.132-11.445-11.473-11.445-6.301 0-11.432 5.13-11.432 11.445M43.672 85.938c-0.26-2.436 0.678-4.688 2.266-6.328-9.688-1.85-13.658-6.575-17.108-10.848-1.681-2.096-3.281-4.088-5.404-5.494-0.065-0.039-0.143-0.039-0.194-0.092-1.811-1.498-4.103-2.447-6.627-2.447h-6.186C4.688 60.729 0 65.404 0 71.133V100h27.018V81.342c3.945 3.45 9.52 6.731 18.086 8.164-0.715-1.041-1.276-2.214-1.432-3.568M89.598 60.729h-6.199c-2.512 0-4.816 0.95-6.613 2.448-0.064 0.052-0.145 0.052-0.195 0.09-2.123 1.406-3.725 3.387-5.417 5.496-3.789 4.688-8.086 10.039-20.104 11.367a4.97 4.97 0 0 0-4.375 5.481 4.95 4.95 0 0 0 4.922 4.414c0.183 0 0.365-0.015 0.561-0.026 10.182-1.133 16.484-4.753 20.82-8.594V100H100V71.133c0-5.729-4.688-10.404-10.402-10.404M42.729 27.671V16.22c0-2.96 2.293-5.361 5.122-5.361h11.203v-2.73c0-3.662-2.838-6.631-6.336-6.631H23.336C19.838 1.498 17 4.467 17 8.129v14.169c0 3.662 2.838 6.633 6.336 6.633h4.848v7.829c0 0.432 0.594 0.737 0.901 0.375 2.312-2.734 4.619-5.468 6.931-8.203h6.862a5.5 5.5 0 0 1-0.149-1.261" fill="#d5a187" data-fill-palette-color="accent"></path><path d="M45.637 18.108v12.783c0 2.67 2.068 4.835 4.62 4.835h12.176l5.052 5.98c0.226 0.266 0.657 0.043 0.657-0.271v-5.708h7.625c2.551 0 4.619-2.165 4.619-4.835V18.108c0-2.669-2.068-4.835-4.619-4.835h-25.51c-2.552-0.001-4.62 2.165-4.62 4.835" fill="#d5a187" data-fill-palette-color="accent"></path></svg></g></svg></g><g id="text-0"><path d="M16.623 48.099l-1.469-0.49-2.156 6.467-5.007-1.669 1.988-5.964-1.44-0.481-1.989 5.964-4.572-1.524 2.156-6.466-1.421-0.474-2.713 8.139 13.91 4.637z" fill="#cf7650" data-fill-palette-color="primary"></path><path d="M26.778 32.903l-1.229 1.469-10.291-3.643 1.197-1.43 7.961 2.982 0.471 0.262-0.354-0.402-4.318-7.335 1.145-1.367z" fill="#cf7650" data-fill-palette-color="primary"></path><path d="M37.565 11.048c1.168-0.68 2.27-0.854 3.305-0.521 1.041 0.329 1.932 1.131 2.674 2.404v0l0.466 0.802 0.011 0.241-6.058 3.528c0.438 0.751 1.129 1.284 2.075 1.598v0c0.849 0.229 1.842 0.012 2.981-0.651v0c0.751-0.438 1.396-0.97 1.934-1.599v0l0.928 0.946c-0.751 0.87-1.602 1.582-2.553 2.135v0c-1.426 0.831-2.739 1.08-3.938 0.749-1.205-0.328-2.223-1.205-3.054-2.632v0c-0.786-1.35-1.102-2.656-0.948-3.916v0c0.178-1.314 0.904-2.342 2.177-3.084zM41.897 13.607c-0.448-0.769-0.978-1.301-1.59-1.597-0.622-0.298-1.253-0.261-1.892 0.112v0c-0.816 0.475-1.295 1.084-1.436 1.826-0.151 0.74-0.046 1.52 0.313 2.341v0z" fill="#cf7650" data-fill-palette-color="primary"></path><path d="M64.434 6.188c-0.153-0.856-0.426-1.439-0.819-1.748-0.387-0.311-0.981-0.394-1.784-0.251v0c-0.856 0.153-1.744 0.553-2.663 1.2v0l1.442 8.085-1.705 0.304-1.797-10.071 1.184-0.211 0.52 0.766c1.086-0.877 2.207-1.418 3.363-1.625v0c1.063-0.19 1.929-0.034 2.599 0.468 0.669 0.502 1.099 1.287 1.29 2.358v0l1.216 6.821-1.705 0.304z" fill="#cf7650" data-fill-palette-color="primary"></path><path d="M84.277 13.696c-1.017-0.179-1.691-0.58-2.023-1.204-0.33-0.631-0.397-1.505-0.201-2.622v0l0.975-5.539-1.706-0.3 0.249-1.415 1.706 0.3 0.434-2.469 1.729 0.17-0.457 2.599 3.301 0.581-0.249 1.415-3.301-0.581-0.955 5.429c-0.124 0.702-0.103 1.23 0.062 1.584 0.159 0.352 0.553 0.583 1.182 0.694v0c0.595 0.105 1.14 0.145 1.634 0.122v0l0.088 1.205c-0.842 0.162-1.665 0.173-2.468 0.031z" fill="#cf7650" data-fill-palette-color="primary"></path><path d="M102.422 20.681c-1.355-0.751-2.176-1.757-2.463-3.019-0.29-1.256-0.044-2.591 0.739-4.005v0c0.793-1.432 1.807-2.35 3.04-2.754 1.224-0.401 2.522-0.222 3.895 0.539v0c1.367 0.757 2.194 1.751 2.483 2.983 0.291 1.241 0.042 2.574-0.749 4v0c-0.777 1.402-1.792 2.316-3.043 2.74-1.252 0.424-2.553 0.263-3.902-0.484zM106.977 12.628c-0.891-0.494-1.762-0.549-2.611-0.166-0.849 0.384-1.549 1.072-2.099 2.064v0c-0.55 0.992-0.759 1.944-0.627 2.856 0.135 0.906 0.648 1.605 1.539 2.099v0c0.868 0.481 1.721 0.53 2.562 0.15 0.837-0.375 1.527-1.053 2.07-2.033v0c0.55-0.992 0.762-1.95 0.637-2.874-0.131-0.927-0.621-1.626-1.471-2.096z" fill="#cf7650" data-fill-palette-color="primary"></path><path d="M120.634 30.56c-0.662 0.563-1.026 1.096-1.09 1.596-0.064 0.501 0.167 1.062 0.695 1.682v0c0.541 0.636 1.33 1.191 2.367 1.666v0l6.309-5.369 1.123 1.32-7.792 6.629-0.779-0.916 0.329-0.761c-1.353-0.552-2.388-1.25-3.106-2.094v0c-0.691-0.812-0.988-1.639-0.891-2.478 0.102-0.845 0.564-1.617 1.386-2.317v0l5.339-4.543 1.123 1.319z" fill="#cf7650" data-fill-palette-color="primary"></path><path d="M130.836 52.759c0.211 0.581 0.506 1.038 0.886 1.369 0.372 0.328 0.775 0.413 1.209 0.255v0c0.351-0.127 0.571-0.377 0.661-0.749 0.096-0.374 0.165-1.118 0.209-2.232v0l0.036-1.097c0.047-0.487 0.102-0.893 0.165-1.22 0.062-0.326 0.217-0.657 0.464-0.992 0.247-0.335 0.619-0.593 1.117-0.773v0c0.9-0.327 1.703-0.195 2.408 0.394 0.703 0.583 1.251 1.418 1.645 2.504v0c0.333 0.92 0.459 1.914 0.378 2.984v0l-1.343 0.032c0.04-0.867-0.068-1.652-0.323-2.354v0c-0.259-0.715-0.571-1.256-0.935-1.623-0.373-0.371-0.751-0.486-1.134-0.347v0c-0.383 0.139-0.627 0.404-0.73 0.796-0.106 0.385-0.166 1.007-0.18 1.864v0l-0.027 0.942c-0.05 1.059-0.218 1.849-0.506 2.373-0.283 0.515-0.766 0.896-1.449 1.143v0c-0.702 0.255-1.427 0.149-2.174-0.317-0.747-0.466-1.317-1.242-1.711-2.328v0c-0.449-1.239-0.649-2.547-0.599-3.923v0l1.389 0.006c0.011 1.225 0.192 2.322 0.544 3.293z" fill="#cf7650" data-fill-palette-color="primary"></path><path d="M0.733 73.463c0-3.093 2.508-5.601 5.601-5.601 3.093 0 5.601 2.508 5.6 5.601 0 3.093-2.508 5.601-5.6 5.601-3.093 0-5.601-2.508-5.601-5.601z" fill="#cf7650" data-fill-palette-color="primary"></path><path d="M132.654 73.463c0-3.093 2.508-5.601 5.601-5.601 3.093 0 5.601 2.508 5.601 5.601 0 3.093-2.508 5.601-5.601 5.601-3.093 0-5.601-2.508-5.601-5.601z" fill="#cf7650" data-fill-palette-color="primary"></path></g><g id="text-1"><path d="M6.361 91.035l-0.312-1.108 4.296-1.209 0.279 0.991-0.561 0.189c0.201 0.063 0.398 0.174 0.591 0.331 0.194 0.164 0.338 0.413 0.432 0.747v0c0.081 0.288 0.084 0.548 0.008 0.781-0.071 0.225-0.21 0.419-0.418 0.583v0c0.208 0.061 0.419 0.171 0.633 0.33 0.216 0.165 0.375 0.431 0.478 0.797v0c0.121 0.432 0.074 0.791-0.141 1.077-0.214 0.293-0.566 0.509-1.056 0.647v0l-2.835 0.797-0.309-1.098 2.726-0.768c0.235-0.066 0.415-0.166 0.541-0.3 0.118-0.132 0.148-0.303 0.088-0.512v0c-0.055-0.196-0.178-0.356-0.367-0.478-0.196-0.121-0.412-0.149-0.648-0.083v0l-2.727 0.768-0.312-1.109 2.727-0.767c0.235-0.066 0.417-0.174 0.544-0.323 0.121-0.147 0.153-0.322 0.096-0.524v0c-0.059-0.209-0.185-0.368-0.377-0.476-0.197-0.1-0.414-0.116-0.649-0.05v0z" fill="#cf7650" data-fill-palette-color="secondary"></path><path d="M8.856 99.118v0.001c-0.182-0.468-0.232-0.886-0.149-1.255 0.085-0.361 0.265-0.668 0.539-0.92 0.271-0.259 0.6-0.463 0.986-0.613v0c0.399-0.155 0.797-0.226 1.196-0.214 0.395 0.021 0.749 0.135 1.062 0.342 0.316 0.212 0.555 0.528 0.717 0.945v0c0.241 0.62 0.23 1.124-0.035 1.511-0.265 0.387-0.726 0.709-1.385 0.966v0c-0.057 0.022-0.13 0.05-0.218 0.084-0.089 0.034-0.166 0.061-0.232 0.08v0l-0.975-2.507c-0.322 0.147-0.542 0.339-0.662 0.574-0.123 0.245-0.12 0.535 0.011 0.871v0c0.066 0.171 0.176 0.34 0.328 0.506 0.155 0.173 0.304 0.286 0.449 0.339v0l-0.659 0.639c-0.12-0.084-0.275-0.228-0.463-0.432-0.182-0.206-0.352-0.512-0.51-0.916zM11.004 97.277v0l0.573 1.472c0.291-0.113 0.506-0.226 0.644-0.338 0.132-0.11 0.21-0.22 0.232-0.331 0.026-0.12 0.017-0.236-0.026-0.35v0c-0.108-0.279-0.295-0.45-0.561-0.515-0.269-0.056-0.557-0.035-0.862 0.062z" fill="#cf7650" data-fill-palette-color="secondary"></path><path d="M10.791 103.522v0c-0.215-0.454-0.294-0.868-0.236-1.241 0.06-0.366 0.217-0.685 0.472-0.956 0.252-0.277 0.566-0.504 0.94-0.681v0c0.387-0.183 0.78-0.282 1.178-0.297 0.395-0.006 0.756 0.082 1.084 0.266 0.33 0.19 0.591 0.487 0.782 0.892v0c0.284 0.602 0.308 1.105 0.071 1.51-0.237 0.405-0.675 0.758-1.313 1.06v0c-0.055 0.026-0.126 0.059-0.212 0.101-0.086 0.041-0.161 0.072-0.225 0.095v0l-1.15-2.432c-0.311 0.169-0.517 0.376-0.62 0.619-0.106 0.253-0.082 0.542 0.072 0.868v0c0.078 0.166 0.199 0.327 0.363 0.482 0.167 0.162 0.324 0.264 0.472 0.307v0l-0.612 0.684c-0.126-0.076-0.29-0.209-0.493-0.399-0.196-0.193-0.387-0.486-0.573-0.878zM12.805 101.534v0l0.674 1.427c0.283-0.134 0.489-0.261 0.619-0.382 0.124-0.119 0.194-0.234 0.209-0.347 0.018-0.121 0.001-0.237-0.052-0.347v0c-0.128-0.27-0.326-0.428-0.595-0.474-0.273-0.036-0.558 0.004-0.855 0.123z" fill="#cf7650" data-fill-palette-color="secondary"></path><path d="M12.825 107.479v0c-0.243-0.44-0.295-0.799-0.154-1.079 0.146-0.283 0.451-0.553 0.914-0.809v0l1.81-1.002-0.286-0.517 0.829-0.459 0.306 0.553 0.849-0.401 0.84 0.654-1.186 0.656 0.533 0.963-0.829 0.459-0.533-0.963-1.783 0.987c-0.226 0.125-0.365 0.245-0.418 0.36-0.056 0.109-0.053 0.22 0.009 0.332v0c0.066 0.119 0.163 0.224 0.292 0.316 0.138 0.095 0.256 0.161 0.355 0.2v0l-0.69 0.626c-0.096-0.048-0.204-0.124-0.324-0.228-0.114-0.108-0.219-0.22-0.315-0.338-0.096-0.118-0.169-0.221-0.219-0.31z" fill="#cf7650" data-fill-palette-color="secondary"></path><path d="M12.957 110.337l-0.396-0.653c0.087-0.013 0.223-0.064 0.409-0.152 0.188-0.082 0.397-0.184 0.624-0.307 0.234-0.126 0.452-0.25 0.656-0.372v0l0.784-0.475 0.523 0.863-0.602 0.364c-0.232 0.141-0.481 0.267-0.746 0.38-0.262 0.119-0.504 0.21-0.728 0.274-0.223 0.064-0.398 0.09-0.524 0.078z" fill="#cf7650" data-fill-palette-color="secondary"></path><path d="M16.057 112.602v0c-0.266-0.394-0.392-0.776-0.379-1.145 0.011-0.36 0.124-0.698 0.337-1.014 0.213-0.316 0.492-0.589 0.836-0.82v0c0.344-0.232 0.706-0.381 1.086-0.449 0.386-0.072 0.759-0.04 1.119 0.093 0.355 0.138 0.659 0.395 0.914 0.773v0c0.144 0.214 0.253 0.424 0.325 0.629 0.073 0.205 0.099 0.433 0.08 0.683v0l-0.991 0.225c0.058-0.145 0.068-0.312 0.031-0.5-0.033-0.183-0.091-0.336-0.174-0.46v0c-0.364-0.541-0.938-0.547-1.722-0.02v0c-0.411 0.277-0.664 0.546-0.759 0.807-0.095 0.26-0.051 0.526 0.131 0.796v0c0.118 0.175 0.256 0.307 0.415 0.396 0.162 0.095 0.306 0.15 0.43 0.165v0l-0.471 0.723c-0.124-0.014-0.306-0.089-0.544-0.224-0.238-0.135-0.46-0.354-0.664-0.658z" fill="#cf7650" data-fill-palette-color="secondary"></path><path d="M18.578 115.977v0c-0.404-0.521-0.55-1.048-0.439-1.581 0.102-0.534 0.442-1.026 1.023-1.476v0c0.58-0.449 1.143-0.654 1.69-0.613 0.551 0.046 1.028 0.329 1.432 0.85v0c0.404 0.521 0.543 1.044 0.418 1.571-0.121 0.532-0.46 1.014-1.019 1.446v0c-0.558 0.433-1.115 0.64-1.67 0.624-0.553-0.027-1.032-0.3-1.435-0.821zM19.299 115.444v0c0.345 0.446 0.897 0.375 1.654-0.212v0c0.757-0.587 0.963-1.103 0.617-1.548v0c-0.171-0.22-0.392-0.323-0.665-0.31-0.268 0.01-0.605 0.173-1.013 0.489v0c-0.408 0.316-0.65 0.603-0.727 0.859-0.082 0.261-0.037 0.501 0.134 0.722z" fill="#cf7650" data-fill-palette-color="secondary"></path><path d="M21.53 119.309l-0.785-0.842 3.267-3.041 0.701 0.753-0.412 0.425c0.208-0.036 0.434-0.028 0.677 0.024 0.248 0.057 0.49 0.212 0.726 0.466v0c0.204 0.219 0.325 0.449 0.365 0.691 0.04 0.232 0.005 0.469-0.105 0.71v0c0.213-0.04 0.451-0.039 0.714 0.004 0.267 0.048 0.531 0.211 0.789 0.489v0c0.305 0.328 0.428 0.669 0.368 1.023-0.056 0.358-0.271 0.711-0.644 1.058v0l-2.155 2.007-0.778-0.836 2.073-1.93c0.179-0.167 0.293-0.338 0.343-0.514 0.045-0.171-0.007-0.337-0.155-0.496v0c-0.139-0.149-0.321-0.235-0.546-0.257-0.23-0.018-0.435 0.057-0.613 0.223v0l-2.074 1.93-0.784-0.843 2.073-1.93c0.179-0.167 0.291-0.345 0.336-0.535 0.04-0.186-0.011-0.356-0.154-0.511v0c-0.148-0.159-0.333-0.243-0.554-0.25-0.221 0.002-0.421 0.086-0.6 0.252v0z" fill="#cf7650" data-fill-palette-color="secondary"></path><path d="M27.447 125.355v0c-0.376-0.333-0.612-0.682-0.706-1.047-0.089-0.36-0.07-0.715 0.058-1.064 0.123-0.354 0.321-0.686 0.596-0.997v0c0.284-0.32 0.605-0.566 0.965-0.737 0.361-0.162 0.727-0.222 1.101-0.183 0.378 0.044 0.735 0.215 1.07 0.512v0c0.499 0.441 0.719 0.895 0.661 1.36-0.058 0.466-0.321 0.963-0.79 1.492v0c-0.041 0.046-0.092 0.104-0.155 0.176-0.063 0.071-0.12 0.13-0.17 0.176v0l-2.014-1.783c-0.219 0.278-0.327 0.549-0.326 0.814 0.002 0.274 0.138 0.531 0.408 0.769v0c0.137 0.122 0.312 0.222 0.524 0.3 0.217 0.083 0.402 0.115 0.554 0.096v0l-0.293 0.87c-0.146-0.02-0.349-0.077-0.61-0.172-0.256-0.1-0.547-0.294-0.873-0.582zM28.515 122.735v0l1.182 1.046c0.207-0.234 0.347-0.433 0.419-0.596 0.067-0.158 0.086-0.292 0.055-0.4-0.031-0.118-0.093-0.218-0.185-0.299v0c-0.224-0.198-0.469-0.265-0.734-0.201-0.265 0.074-0.511 0.224-0.738 0.45z" fill="#cf7650" data-fill-palette-color="secondary"></path><path d="M33.358 127.171l-2.251-1.753 0.539-0.692 2.251 1.753z" fill="#cf7650" data-fill-palette-color="secondary"></path><path d="M34.309 130.644v0c-0.415-0.283-0.623-0.581-0.624-0.894 0.003-0.318 0.154-0.696 0.453-1.134v0l1.165-1.71-0.488-0.332 0.533-0.783 0.522 0.355 0.579-0.74 1.043 0.206-0.763 1.12 0.909 0.619-0.533 0.783-0.91-0.619-1.147 1.684c-0.145 0.213-0.216 0.383-0.212 0.509-0.001 0.122 0.051 0.22 0.158 0.293v0c0.112 0.077 0.246 0.127 0.403 0.151 0.166 0.022 0.301 0.029 0.406 0.018v0l-0.333 0.87c-0.107 0.001-0.238-0.018-0.393-0.058-0.15-0.045-0.295-0.098-0.433-0.16-0.139-0.062-0.25-0.121-0.335-0.178z" fill="#cf7650" data-fill-palette-color="secondary"></path><path d="M37.588 132.639v0c-0.566-0.338-0.894-0.776-0.984-1.313-0.1-0.535 0.038-1.117 0.415-1.746v0c0.376-0.63 0.827-1.025 1.35-1.187 0.53-0.158 1.077-0.068 1.643 0.27v0c0.566 0.338 0.886 0.775 0.962 1.311 0.081 0.539-0.059 1.112-0.422 1.718v0c-0.363 0.606-0.805 1.002-1.328 1.189-0.525 0.177-1.07 0.096-1.636-0.242zM38.065 131.879v0c0.484 0.289 0.972 0.023 1.463-0.799v0c0.492-0.822 0.495-1.378 0.012-1.667v0c-0.239-0.143-0.483-0.158-0.732-0.046-0.246 0.106-0.501 0.381-0.766 0.825v0c-0.265 0.443-0.386 0.798-0.364 1.064 0.019 0.273 0.148 0.48 0.387 0.623z" fill="#cf7650" data-fill-palette-color="secondary"></path><path d="M39.848 135.65l0.831-0.517c0.064 0.1 0.153 0.21 0.268 0.328 0.115 0.119 0.264 0.224 0.446 0.316v0c0.34 0.171 0.639 0.211 0.897 0.121 0.265-0.087 0.495-0.325 0.69-0.714v0l0.316-0.628c-0.113 0.118-0.242 0.224-0.388 0.318-0.146 0.094-0.31 0.148-0.492 0.163-0.182 0.015-0.383-0.033-0.602-0.143v0c-0.297-0.15-0.537-0.354-0.718-0.612-0.172-0.262-0.254-0.576-0.243-0.944 0.004-0.371 0.128-0.799 0.372-1.284v0c0.247-0.491 0.519-0.857 0.814-1.096 0.298-0.23 0.605-0.357 0.922-0.381 0.31-0.026 0.614 0.035 0.911 0.185v0c0.328 0.165 0.535 0.372 0.622 0.622 0.093 0.252 0.11 0.485 0.048 0.697v0l0.458-0.637 0.783 0.394-1.911 3.795c-0.308 0.613-0.706 1.017-1.192 1.214-0.49 0.202-1.032 0.154-1.627-0.146v0c-0.328-0.165-0.588-0.349-0.782-0.553-0.197-0.198-0.338-0.364-0.423-0.498zM42.409 134.212v0c0.237 0.119 0.474 0.102 0.711-0.053 0.243-0.151 0.467-0.43 0.672-0.836v0c0.192-0.382 0.289-0.718 0.29-1.006 0.001-0.289-0.12-0.494-0.363-0.617v0c-0.14-0.07-0.29-0.096-0.451-0.078-0.161 0.018-0.331 0.099-0.511 0.244-0.174 0.148-0.34 0.38-0.499 0.696v0c-0.217 0.431-0.301 0.787-0.253 1.07 0.045 0.274 0.179 0.467 0.404 0.58z" fill="#cf7650" data-fill-palette-color="secondary"></path><path d="M46.758 137.193v0c-0.465-0.192-0.801-0.445-1.01-0.759-0.202-0.311-0.3-0.653-0.293-1.025 0-0.375 0.079-0.753 0.237-1.136v0c0.163-0.396 0.387-0.733 0.672-1.013 0.288-0.271 0.615-0.448 0.98-0.532 0.372-0.082 0.765-0.037 1.179 0.134v0c0.615 0.254 0.972 0.61 1.069 1.069 0.097 0.459 0.011 1.015-0.258 1.668v0c-0.023 0.057-0.053 0.129-0.09 0.217-0.036 0.088-0.071 0.162-0.102 0.222v0l-2.487-1.026c-0.116 0.334-0.13 0.626-0.042 0.875 0.092 0.258 0.304 0.456 0.637 0.594v0c0.17 0.07 0.367 0.107 0.593 0.112 0.232 0.008 0.417-0.023 0.556-0.09v0l0.007 0.918c-0.144 0.029-0.355 0.041-0.633 0.036-0.275-0.011-0.613-0.099-1.015-0.264zM46.91 134.367v0l1.46 0.603c0.119-0.289 0.186-0.522 0.2-0.7 0.012-0.171-0.014-0.304-0.079-0.396-0.068-0.102-0.159-0.176-0.272-0.223v0c-0.276-0.114-0.529-0.097-0.759 0.051-0.226 0.156-0.41 0.378-0.55 0.665z" fill="#cf7650" data-fill-palette-color="secondary"></path><path d="M50.926 138.752v0c-0.476-0.161-0.756-0.393-0.84-0.694-0.082-0.308-0.038-0.712 0.132-1.214v0l0.664-1.959-0.56-0.19 0.305-0.897 0.598 0.202 0.359-0.868 1.06-0.081-0.435 1.283 1.042 0.354-0.304 0.897-1.042-0.353-0.655 1.93c-0.083 0.244-0.105 0.427-0.067 0.547 0.032 0.118 0.109 0.198 0.231 0.24v0c0.129 0.044 0.271 0.056 0.428 0.037 0.166-0.023 0.298-0.053 0.397-0.091v0l-0.089 0.927c-0.103 0.03-0.234 0.046-0.393 0.05-0.157-0.003-0.31-0.016-0.461-0.038-0.15-0.022-0.274-0.05-0.37-0.082z" fill="#cf7650" data-fill-palette-color="secondary"></path><path d="M54.116 139.567l-1.061-0.292 1.815-6.581 1.012 0.279-0.602 2.18-0.198 0.643c0.165-0.138 0.367-0.244 0.606-0.319 0.246-0.073 0.539-0.063 0.879 0.031v0c0.432 0.119 0.718 0.346 0.859 0.681 0.134 0.333 0.133 0.745-0.003 1.236v0l-0.782 2.839-1.101-0.304 0.753-2.73c0.065-0.236 0.059-0.445-0.017-0.629-0.072-0.175-0.209-0.29-0.412-0.346v0c-0.203-0.056-0.403-0.034-0.599 0.067-0.199 0.107-0.331 0.279-0.396 0.515v0z" fill="#cf7650" data-fill-palette-color="secondary"></path><path d="M59.91 141.015v0c-0.494-0.095-0.874-0.275-1.141-0.542-0.26-0.265-0.424-0.58-0.493-0.945-0.075-0.367-0.073-0.754 0.006-1.161v0c0.081-0.42 0.233-0.796 0.455-1.127 0.228-0.323 0.513-0.562 0.855-0.717 0.348-0.154 0.742-0.189 1.182-0.105v0c0.654 0.126 1.074 0.404 1.261 0.835 0.187 0.43 0.214 0.992 0.08 1.686v0c-0.012 0.06-0.026 0.137-0.044 0.23-0.018 0.093-0.037 0.173-0.057 0.238v0l-2.641-0.509c-0.047 0.351-0.002 0.639 0.134 0.867 0.142 0.235 0.389 0.386 0.743 0.454v0c0.18 0.035 0.381 0.032 0.603-0.008 0.229-0.039 0.404-0.105 0.526-0.2v0l0.191 0.898c-0.135 0.057-0.34 0.111-0.613 0.162-0.271 0.045-0.621 0.026-1.047-0.056zM59.494 138.216v0l1.551 0.299c0.059-0.307 0.078-0.549 0.056-0.726-0.023-0.17-0.075-0.295-0.156-0.373-0.087-0.086-0.191-0.141-0.311-0.163v0c-0.293-0.057-0.538 0.011-0.734 0.201-0.19 0.199-0.326 0.453-0.406 0.762z" fill="#cf7650" data-fill-palette-color="secondary"></path><path d="M63.923 141.531l-1.102-0.142 0.569-4.426 1.001 0.129-0.051 0.794c0.062-0.108 0.152-0.224 0.27-0.345 0.118-0.115 0.27-0.208 0.457-0.28 0.186-0.065 0.418-0.08 0.694-0.045v0c0.088 0.011 0.164 0.028 0.23 0.051 0.059 0.021 0.117 0.046 0.176 0.073v0l-0.402 1.13c-0.082-0.106-0.221-0.172-0.417-0.197v0c-0.229-0.029-0.42-0.006-0.574 0.07-0.16 0.075-0.282 0.166-0.363 0.272-0.089 0.105-0.137 0.188-0.145 0.248v0z" fill="#cf7650" data-fill-palette-color="secondary"></path><path d="M68.416 143.409l-0.763-0.048c0.039-0.079 0.075-0.22 0.108-0.422 0.04-0.202 0.075-0.431 0.105-0.688 0.03-0.264 0.053-0.514 0.067-0.751v0l0.058-0.915 1.006 0.063-0.044 0.701c-0.017 0.271-0.055 0.548-0.113 0.83-0.052 0.283-0.115 0.534-0.19 0.754-0.075 0.22-0.153 0.378-0.234 0.476z" fill="#cf7650" data-fill-palette-color="secondary"></path><path d="M72.429 142.159v0c-0.319-0.004-0.583-0.108-0.791-0.315-0.202-0.199-0.335-0.435-0.4-0.707v0l-0.009 0.886-0.979-0.011 0.077-6.806 1.069 0.012-0.026 2.343-0.1 0.774c0.05-0.203 0.147-0.369 0.291-0.496 0.144-0.134 0.308-0.231 0.492-0.29 0.184-0.059 0.361-0.088 0.531-0.086v0c0.55 0.006 0.966 0.208 1.246 0.605 0.281 0.39 0.417 0.969 0.409 1.737v0c-0.006 0.537-0.092 0.981-0.259 1.332-0.16 0.345-0.377 0.604-0.651 0.777-0.274 0.167-0.573 0.248-0.9 0.245zM72.185 141.269v0c0.143 0.002 0.282-0.044 0.419-0.138 0.13-0.094 0.237-0.249 0.321-0.465 0.091-0.216 0.138-0.508 0.142-0.874v0c0.006-0.496-0.075-0.857-0.242-1.083-0.167-0.219-0.367-0.33-0.598-0.333v0c-0.278-0.003-0.491 0.137-0.636 0.421-0.146 0.277-0.221 0.626-0.226 1.047v0c-0.005 0.421 0.066 0.765 0.213 1.031 0.14 0.26 0.342 0.391 0.607 0.394z" fill="#cf7650" data-fill-palette-color="secondary"></path><path d="M76.71 142.006v0c-0.454 0.028-0.796-0.097-1.024-0.375-0.228-0.272-0.358-0.662-0.39-1.171v0l-0.183-2.939 1.109-0.069 0.177 2.848c0.015 0.244 0.075 0.441 0.18 0.591 0.098 0.15 0.252 0.219 0.462 0.206v0c0.217-0.014 0.388-0.102 0.514-0.267 0.133-0.165 0.191-0.369 0.176-0.613v0l-0.177-2.848 1.119-0.07 0.277 4.455-1.007 0.062-0.056-0.578c-0.104 0.183-0.243 0.352-0.418 0.506-0.181 0.154-0.434 0.241-0.759 0.262z" fill="#cf7650" data-fill-palette-color="secondary"></path><path d="M80.993 136.281l-1.245 0.148-0.14-1.184 1.244-0.148zM81.555 141.437l-1.153 0.137-0.528-4.432 1.154-0.137z" fill="#cf7650" data-fill-palette-color="secondary"></path><path d="M84.053 141.048l-1.077 0.169-1.052-6.725 1.077-0.168z" fill="#cf7650" data-fill-palette-color="secondary"></path><path d="M86.806 140.594v0c-0.352 0.076-0.677 0.048-0.976-0.082-0.307-0.136-0.567-0.361-0.781-0.676-0.214-0.315-0.369-0.702-0.468-1.161v0c-0.154-0.717-0.128-1.31 0.077-1.778 0.205-0.468 0.6-0.764 1.185-0.89v0c0.292-0.063 0.557-0.043 0.794 0.059 0.237 0.102 0.419 0.285 0.546 0.55v0l-0.217-0.62-0.517-2.411 1.026-0.22 1.428 6.655-0.947 0.203-0.192-0.897c-0.014 0.323-0.101 0.598-0.26 0.827-0.159 0.229-0.392 0.376-0.698 0.441zM86.869 139.674v0c0.213-0.046 0.378-0.196 0.498-0.45 0.119-0.255 0.125-0.631 0.018-1.13v0c-0.098-0.458-0.237-0.797-0.416-1.015-0.186-0.217-0.411-0.297-0.677-0.24v0c-0.139 0.03-0.267 0.099-0.382 0.207-0.121 0.116-0.203 0.287-0.245 0.511-0.049 0.226-0.035 0.518 0.042 0.876v0c0.104 0.485 0.264 0.826 0.48 1.023 0.216 0.197 0.443 0.27 0.682 0.218z" fill="#cf7650" data-fill-palette-color="secondary"></path><path d="M92.449 136.724l-2.742 0.787-0.242-0.842 2.743-0.787z" fill="#cf7650" data-fill-palette-color="secondary"></path><path d="M96.169 137.845v0c-0.447 0.162-0.848 0.191-1.203 0.088-0.346-0.099-0.647-0.29-0.901-0.573-0.254-0.284-0.452-0.62-0.593-1.01v0c-0.141-0.39-0.198-0.777-0.171-1.163 0.024-0.392 0.145-0.746 0.363-1.063 0.22-0.311 0.544-0.543 0.972-0.698v0c0.243-0.088 0.472-0.142 0.689-0.162 0.217-0.021 0.444 0.009 0.682 0.089v0l-0.023 1.016c-0.127-0.091-0.286-0.142-0.477-0.153-0.185-0.013-0.348 0.007-0.489 0.058v0c-0.613 0.222-0.759 0.777-0.438 1.664v0c0.169 0.466 0.368 0.777 0.597 0.933 0.23 0.155 0.498 0.178 0.805 0.066v0c0.198-0.072 0.36-0.173 0.485-0.305 0.132-0.134 0.22-0.26 0.265-0.377v0l0.586 0.633c-0.044 0.117-0.161 0.275-0.349 0.473-0.188 0.198-0.455 0.36-0.8 0.484z" fill="#cf7650" data-fill-palette-color="secondary"></path><path d="M100.055 136.22v0c-0.603 0.265-1.15 0.278-1.64 0.041-0.493-0.229-0.888-0.679-1.182-1.35v0c-0.295-0.672-0.356-1.268-0.184-1.789 0.178-0.523 0.569-0.917 1.172-1.182v0c0.603-0.265 1.145-0.273 1.626-0.023 0.486 0.246 0.872 0.693 1.155 1.34v0c0.284 0.647 0.35 1.237 0.199 1.771-0.16 0.53-0.542 0.928-1.146 1.192zM99.714 135.391v0c0.516-0.227 0.582-0.778 0.197-1.655v0c-0.385-0.877-0.835-1.202-1.352-0.976v0c-0.255 0.112-0.409 0.302-0.462 0.57-0.056 0.262 0.02 0.629 0.228 1.102v0c0.207 0.473 0.426 0.777 0.656 0.913 0.233 0.142 0.477 0.158 0.733 0.046z" fill="#cf7650" data-fill-palette-color="secondary"></path><path d="M104.006 134.168l-1.008 0.555-2.155-3.908 0.901-0.497 0.312 0.503c0.016-0.21 0.079-0.427 0.188-0.65 0.116-0.227 0.325-0.423 0.629-0.591v0c0.262-0.144 0.515-0.206 0.758-0.186 0.235 0.018 0.456 0.109 0.664 0.275v0c0.013-0.216 0.072-0.447 0.177-0.692 0.112-0.248 0.334-0.463 0.667-0.647v0c0.393-0.216 0.753-0.252 1.081-0.107 0.334 0.142 0.624 0.435 0.87 0.882v0l1.422 2.578-0.999 0.551-1.368-2.48c-0.118-0.214-0.256-0.367-0.415-0.458-0.155-0.085-0.328-0.075-0.519 0.03v0c-0.178 0.098-0.306 0.254-0.382 0.467-0.073 0.219-0.051 0.435 0.067 0.649v0l1.367 2.481-1.008 0.556-1.367-2.481c-0.118-0.214-0.264-0.366-0.438-0.456-0.171-0.084-0.348-0.076-0.533 0.026v0c-0.19 0.105-0.316 0.264-0.378 0.475-0.052 0.215-0.019 0.429 0.099 0.644v0z" fill="#cf7650" data-fill-palette-color="secondary"></path><path d="M110.714 130.131l-0.938 0.668-2.588-3.636 0.839-0.597 0.367 0.464c-0.008-0.211 0.029-0.433 0.113-0.668 0.089-0.238 0.274-0.458 0.557-0.659v0c0.243-0.173 0.488-0.264 0.732-0.271 0.235-0.009 0.465 0.056 0.69 0.197v0c-0.012-0.216 0.02-0.452 0.097-0.707 0.083-0.259 0.279-0.499 0.589-0.719v0c0.365-0.26 0.719-0.337 1.062-0.231 0.348 0.102 0.67 0.361 0.965 0.777v0l1.707 2.399-0.929 0.661-1.643-2.307c-0.142-0.199-0.297-0.335-0.465-0.407-0.164-0.067-0.335-0.037-0.511 0.089v0c-0.166 0.118-0.275 0.287-0.327 0.507-0.048 0.226-0.001 0.438 0.141 0.638v0l1.643 2.308-0.938 0.667-1.643-2.308c-0.142-0.199-0.304-0.334-0.487-0.403-0.179-0.064-0.354-0.035-0.526 0.087v0c-0.177 0.126-0.284 0.298-0.321 0.516-0.027 0.219 0.03 0.429 0.172 0.628v0z" fill="#cf7650" data-fill-palette-color="secondary"></path><path d="M117.08 125.409v0c-0.344 0.298-0.692 0.405-1.042 0.322-0.346-0.078-0.685-0.31-1.018-0.695v0l-1.926-2.228 0.84-0.726 1.866 2.158c0.16 0.185 0.327 0.305 0.501 0.361 0.169 0.06 0.333 0.022 0.492-0.116v0c0.164-0.142 0.247-0.317 0.248-0.524 0.006-0.211-0.071-0.41-0.232-0.594v0l-1.866-2.158 0.848-0.733 2.919 3.375-0.763 0.66-0.395-0.426c0.028 0.209 0.02 0.428-0.026 0.656-0.051 0.232-0.199 0.455-0.446 0.668z" fill="#cf7650" data-fill-palette-color="secondary"></path><path d="M120.582 121.982l-0.812 0.816-3.164-3.148 0.733-0.736 0.434 0.402c-0.044-0.206-0.042-0.435 0.005-0.685 0.047-0.25 0.191-0.495 0.43-0.736v0c0.321-0.323 0.659-0.46 1.015-0.413 0.36 0.042 0.721 0.243 1.082 0.603v0l2.088 2.076-0.812 0.817-2.015-2.005c-0.178-0.177-0.359-0.285-0.542-0.323-0.178-0.033-0.343 0.027-0.496 0.181v0c-0.149 0.149-0.225 0.332-0.229 0.548 0.001 0.221 0.09 0.42 0.268 0.598v0z" fill="#cf7650" data-fill-palette-color="secondary"></path><path d="M120.256 114.741l-0.832 0.937-0.891-0.791 0.831-0.937zM124.102 118.22l-0.771 0.869-3.338-2.961 0.77-0.869z" fill="#cf7650" data-fill-palette-color="secondary"></path><path d="M126.037 116.031v0c-0.314 0.393-0.626 0.578-0.938 0.555-0.317-0.027-0.683-0.206-1.097-0.537v0l-1.616-1.291-0.369 0.462-0.74-0.591 0.394-0.494-0.694-0.633 0.284-1.025 1.059 0.846 0.686-0.86 0.741 0.591-0.687 0.86 1.592 1.272c0.202 0.161 0.366 0.244 0.492 0.249 0.122 0.011 0.223-0.035 0.304-0.135v0c0.085-0.106 0.145-0.236 0.181-0.39 0.035-0.163 0.051-0.298 0.049-0.404v0l0.842 0.398c-0.007 0.107-0.036 0.236-0.087 0.387-0.056 0.146-0.12 0.287-0.192 0.42-0.072 0.134-0.14 0.24-0.204 0.32z" fill="#cf7650" data-fill-palette-color="secondary"></path><path d="M129.385 114.109l-0.632 0.901-1.22-1.739-4.363-1.019 0.714-1.017 2.007 0.598 1.014 0.363-0.687-0.83-1.241-1.692 0.673-0.959z" fill="#cf7650" data-fill-palette-color="secondary"></path></g></svg></g></svg></g></svg></g></svg></g></svg></g></svg></g><defs></defs></svg><rect width="320" height="360" fill="none" stroke="none" visibility="hidden"></rect></g></svg>